{
  "accessors": [
    {
      "bufferView": 2,
      "componentType": 5126,
      "count": 5261,
      "max": [
        0.5309395790100098,
        0.3193795084953308,
        0.46995484828948975
      ],
      "min": [
        -0.5376903414726257,
        -0.5028241872787476,
        -1.075778841972351
      ],
      "type": "VEC3"
    },
    {
      "bufferView": 2,
      "byteOffset": 63132,
      "componentType": 5126,
      "count": 5261,
      "max": [
        0.9999589323997498,
        0.9995057582855225,
        0.9994109272956848
      ],
      "min": [
        -0.9998175501823425,
        -0.9997313618659973,
        -0.9979685544967651
      ],
      "type": "VEC3"
    },
    {
      "bufferView": 1,
      "componentType": 5126,
      "count": 5261,
      "max": [
        0.9771357178688049,
        0.9969612956047058
      ],
      "min": [
        0.003038737690076232,
        0.0030386957805603743
      ],
      "type": "VEC2"
    },
    {
      "bufferView": 1,
      "byteOffset": 42088,
      "componentType": 5126,
      "count": 5261,
      "max": [
        1.0000001192092896,
        0.8415659666061401
      ],
      "min": [
        0.0,
        0.0
      ],
      "type": "VEC2"
    },
    {
      "bufferView": 0,
      "componentType": 5125,
      "count": 25608,
      "type": "SCALAR"
    },
    {
      "bufferView": 2,
      "byteOffset": 126264,
      "componentType": 5126,
      "count": 5183,
      "max": [
        0.5357115268707275,
        0.324286550283432,
        0.4748779237270355
      ],
      "min": [
        -0.5424191951751709,
        -0.5076659321784973,
        -1.0807520151138306
      ],
      "type": "VEC3"
    },
    {
      "bufferView": 2,
      "byteOffset": 188460,
      "componentType": 5126,
      "count": 5183,
      "max": [
        0.9997941851615906,
        0.9995514154434204,
        0.9985103607177734
      ],
      "min": [
        -0.9999557137489319,
        -0.9995352029800415,
        -0.999235212802887
      ],
      "type": "VEC3"
    },
    {
      "bufferView": 1,
      "byteOffset": 84176,
      "componentType": 5126,
      "count": 5183,
      "max": [
        1.0000001192092896,
        0.8415659666061401
      ],
      "min": [
        0.0,
        0.0
      ],
      "type": "VEC2"
    },
    {
      "bufferView": 1,
      "byteOffset": 125640,
      "componentType": 5126,
      "count": 5183,
      "max": [
        0.9771357178688049,
        0.9969612956047058
      ],
      "min": [
        0.003038737690076232,
        0.0030386957805603743
      ],
      "type": "VEC2"
    },
    {
      "bufferView": 0,
      "byteOffset": 102432,
      "componentType": 5125,
      "count": 25188,
      "type": "SCALAR"
    },
    {
      "bufferView": 2,
      "byteOffset": 250656,
      "componentType": 5126,
      "count": 3118,
      "max": [
        3.1061267852783203,
        13.374439239501953,
        8.710622787475586
      ],
      "min": [
        -16.162490844726563,
        -6.64866304397583,
        -12.95897102355957
      ],
      "type": "VEC3"
    },
    {
      "bufferView": 2,
      "byteOffset": 288072,
      "componentType": 5126,
      "count": 3118,
      "max": [
        0.9999271631240845,
        0.9973947405815125,
        0.9995678663253784
      ],
      "min": [
        -0.9999472498893738,
        -0.9973970055580139,
        -0.9990221858024597
      ],
      "type": "VEC3"
    },
    {
      "bufferView": 1,
      "byteOffset": 167104,
      "componentType": 5126,
      "count": 3118,
      "max": [
        0.9864248037338257,
        0.9968845844268799
      ],
      "min": [
        0.003115288680419326,
        0.0031152633018791676
      ],
      "type": "VEC2"
    },
    {
      "bufferView": 1,
      "byteOffset": 192048,
      "componentType": 5126,
      "count": 3118,
      "max": [
        0.877926766872406,
        0.7079931497573853
      ],
      "min": [
        0.06552235037088394,
        0.173439159989357
      ],
      "type": "VEC2"
    },
    {
      "bufferView": 0,
      "byteOffset": 203184,
      "componentType": 5125,
      "count": 15024,
      "type": "SCALAR"
    },
    {
      "bufferView": 2,
      "byteOffset": 325488,
      "componentType": 5126,
      "count": 3118,
      "max": [
        3.1952626705169678,
        13.451802253723145,
        8.785906791687012
      ],
      "min": [
        -16.238237380981445,
        -6.694347858428955,
        -13.044820785522461
      ],
      "type": "VEC3"
    },
    {
      "bufferView": 2,
      "byteOffset": 362904,
      "componentType": 5126,
      "count": 3118,
      "max": [
        0.999948263168335,
        0.9982849359512329,
        0.9998981356620789
      ],
      "min": [
        -0.9999606013298035,
        -0.9979045987129211,
        -0.9996387362480164
      ],
      "type": "VEC3"
    },
    {
      "bufferView": 1,
      "byteOffset": 216992,
      "componentType": 5126,
      "count": 3118,
      "max": [
        0.877926766872406,
        0.7079931497573853
      ],
      "min": [
        0.06552235037088394,
        0.173439159989357
      ],
      "type": "VEC2"
    },
    {
      "bufferView": 1,
      "byteOffset": 241936,
      "componentType": 5126,
      "count": 3118,
      "max": [
        0.9864248037338257,
        0.9968845844268799
      ],
      "min": [
        0.003115288680419326,
        0.0031152633018791676
      ],
      "type": "VEC2"
    },
    {
      "bufferView": 0,
      "byteOffset": 263280,
      "componentType": 5125,
      "count": 15024,
      "type": "SCALAR"
    },
    {
      "bufferView": 2,
      "byteOffset": 400320,
      "componentType": 5126,
      "count": 17360,
      "max": [
        0.33587437868118286,
        0.10872236639261246,
        0.08794187754392624
      ],
      "min": [
        -0.4970485270023346,
        -0.5058417916297913,
        -0.7041058540344238
      ],
      "type": "VEC3"
    },
    {
      "bufferView": 2,
      "byteOffset": 608640,
      "componentType": 5126,
      "count": 17360,
      "max": [
        0.996871829032898,
        0.9999073147773743,
        0.9998292326927185
      ],
      "min": [
        -0.9976792335510254,
        -0.9999077916145325,
        -0.9997132420539856
      ],
      "type": "VEC3"
    },
    {
      "bufferView": 1,
      "byteOffset": 266880,
      "componentType": 5126,
      "count": 17360,
      "max": [
        0.16538749635219574,
        0.5452590584754944
      ],
      "min": [
        0.08269526064395905,
        0.3917040228843689
      ],
      "type": "VEC2"
    },
    {
      "bufferView": 1,
      "byteOffset": 405760,
      "componentType": 5126,
      "count": 17360,
      "max": [
        0.16538749635219574,
        0.5452590584754944
      ],
      "min": [
        0.08269526064395905,
        0.3917040228843689
      ],
      "type": "VEC2"
    },
    {
      "bufferView": 0,
      "byteOffset": 323376,
      "componentType": 5125,
      "count": 25200,
      "type": "SCALAR"
    },
    {
      "bufferView": 2,
      "byteOffset": 816960,
      "componentType": 5126,
      "count": 17360,
      "max": [
        0.3398571014404297,
        0.11246351897716522,
        0.09192249178886414
      ],
      "min": [
        -0.5010350942611694,
        -0.5098214745521545,
        -0.7080798745155334
      ],
      "type": "VEC3"
    },
    {
      "bufferView": 2,
      "byteOffset": 1025280,
      "componentType": 5126,
      "count": 17360,
      "max": [
        0.9971964359283447,
        0.9995144009590149,
        0.9996252059936523
      ],
      "min": [
        -0.9960638880729675,
        -0.9996992349624634,
        -0.9998098015785217
      ],
      "type": "VEC3"
    },
    {
      "bufferView": 1,
      "byteOffset": 544640,
      "componentType": 5126,
      "count": 17360,
      "max": [
        0.16538749635219574,
        0.5452590584754944
      ],
      "min": [
        0.08269526064395905,
        0.3917040228843689
      ],
      "type": "VEC2"
    },
    {
      "bufferView": 1,
      "byteOffset": 683520,
      "componentType": 5126,
      "count": 17360,
      "max": [
        0.16538749635219574,
        0.5452590584754944
      ],
      "min": [
        0.08269526064395905,
        0.3917040228843689
      ],
      "type": "VEC2"
    },
    {
      "bufferView": 0,
      "byteOffset": 424176,
      "componentType": 5125,
      "count": 25200,
      "type": "SCALAR"
    },
    {
      "bufferView": 2,
      "byteOffset": 1233600,
      "componentType": 5126,
      "count": 998,
      "max": [
        1.64055597782135,
        1.7520084381103516,
        0.8391536474227905
      ],
      "min": [
        -3.0315780639648438,
        -4.640511989593506,
        -5.136883735656738
      ],
      "type": "VEC3"
    },
    {
      "bufferView": 2,
      "byteOffset": 1245576,
      "componentType": 5126,
      "count": 998,
      "max": [
        0.9999535083770752,
        0.9999570250511169,
        0.9984371662139893
      ],
      "min": [
        -0.9960553050041199,
        -0.9991629123687744,
        -0.999647855758667
      ],
      "type": "VEC3"
    },
    {
      "bufferView": 1,
      "byteOffset": 822400,
      "componentType": 5126,
      "count": 998,
      "max": [
        0.662441611289978,
        0.8268051743507385
      ],
      "min": [
        0.006046404130756855,
        0.0060464367270469666
      ],
      "type": "VEC2"
    },
    {
      "bufferView": 1,
      "byteOffset": 830384,
      "componentType": 5126,
      "count": 998,
      "max": [
        0.4663127064704895,
        0.9379393458366394
      ],
      "min": [
        0.3214210867881775,
        0.7802159190177917
      ],
      "type": "VEC2"
    },
    {
      "bufferView": 0,
      "byteOffset": 524976,
      "componentType": 5125,
      "count": 5496,
      "type": "SCALAR"
    },
    {
      "bufferView": 2,
      "byteOffset": 1257552,
      "componentType": 5126,
      "count": 998,
      "max": [
        1.7305517196655273,
        1.8376586437225342,
        0.9286953806877136
      ],
      "min": [
        -3.1027121543884277,
        -4.730255603790283,
        -5.224532127380371
      ],
      "type": "VEC3"
    },
    {
      "bufferView": 2,
      "byteOffset": 1269528,
      "componentType": 5126,
      "count": 998,
      "max": [
        0.9980142712593079,
        0.999087929725647,
        0.9992820024490356
      ],
      "min": [
        -0.9999535083770752,
        -0.9997654557228088,
        -0.9982841610908508
      ],
      "type": "VEC3"
    },
    {
      "bufferView": 1,
      "byteOffset": 838368,
      "componentType": 5126,
      "count": 998,
      "max": [
        0.4663127064704895,
        0.9379393458366394
      ],
      "min": [
        0.3214210867881775,
        0.7802159190177917
      ],
      "type": "VEC2"
    },
    {
      "bufferView": 1,
      "byteOffset": 846352,
      "componentType": 5126,
      "count": 998,
      "max": [
        0.662441611289978,
        0.8268051743507385
      ],
      "min": [
        0.006046404130756855,
        0.0060464367270469666
      ],
      "type": "VEC2"
    },
    {
      "bufferView": 0,
      "byteOffset": 546960,
      "componentType": 5125,
      "count": 5496,
      "type": "SCALAR"
    },
    {
      "bufferView": 2,
      "byteOffset": 1281504,
      "componentType": 5126,
      "count": 1122,
      "max": [
        1.350750207901001,
        1.2866361141204834,
        1.4558196067810059
      ],
      "min": [
        -4.240220546722412,
        -5.148097515106201,
        -7.701841831207275
      ],
      "type": "VEC3"
    },
    {
      "bufferView": 2,
      "byteOffset": 1294968,
      "componentType": 5126,
      "count": 1122,
      "max": [
        0.9988453984260559,
        0.999717116355896,
        0.9997556805610657
      ],
      "min": [
        -0.9935609102249146,
        -0.9903095960617065,
        -0.9940907955169678
      ],
      "type": "VEC3"
    },
    {
      "bufferView": 1,
      "byteOffset": 854336,
      "componentType": 5126,
      "count": 1122,
      "max": [
        0.993228018283844,
        0.9939536452293396
      ],
      "min": [
        0.006046405527740717,
        0.006046393420547247
      ],
      "type": "VEC2"
    },
    {
      "bufferView": 1,
      "byteOffset": 863312,
      "componentType": 5126,
      "count": 1122,
      "max": [
        0.6885820031166077,
        0.9880377054214478
      ],
      "min": [
        0.27057644724845886,
        0.44030269980430603
      ],
      "type": "VEC2"
    },
    {
      "bufferView": 0,
      "byteOffset": 568944,
      "componentType": 5125,
      "count": 2376,
      "type": "SCALAR"
    },
    {
      "bufferView": 2,
      "byteOffset": 1308432,
      "componentType": 5126,
      "count": 1122,
      "max": [
        1.408896803855896,
        1.3426040410995483,
        1.5013033151626587
      ],
      "min": [
        -4.255505561828613,
        -5.191797256469727,
        -7.744906425476074
      ],
      "type": "VEC3"
    },
    {
      "bufferView": 2,
      "byteOffset": 1321896,
      "componentType": 5126,
      "count": 1122,
      "max": [
        0.9950780272483826,
        0.9856917262077332,
        0.9928750395774841
      ],
      "min": [
        -0.9992706179618835,
        -0.9997935891151428,
        -0.9986870288848877
      ],
      "type": "VEC3"
    },
    {
      "bufferView": 1,
      "byteOffset": 872288,
      "componentType": 5126,
      "count": 1122,
      "max": [
        0.6885820031166077,
        0.9880377054214478
      ],
      "min": [
        0.27057644724845886,
        0.44030269980430603
      ],
      "type": "VEC2"
    },
    {
      "bufferView": 1,
      "byteOffset": 881264,
      "componentType": 5126,
      "count": 1122,
      "max": [
        0.993228018283844,
        0.9939536452293396
      ],
      "min": [
        0.006046405527740717,
        0.006046393420547247
      ],
      "type": "VEC2"
    },
    {
      "bufferView": 0,
      "byteOffset": 578448,
      "componentType": 5125,
      "count": 2376,
      "type": "SCALAR"
    }
  ],
  "asset": {
    "extras": {
      "author": "Romélus 3D (https://sketchfab.com/Romelus)",
      "license": "CC-BY-4.0 (http://creativecommons.org/licenses/by/4.0/)",
      "source": "https://sketchfab.com/3d-models/madara-uchiha-uchiwa-non-edo-tensei-6ae9d16b88b84c769c83059b22a17159",
      "title": "Madara Uchiha (Uchiwa) - Non - edo tensei"
    },
    "generator": "Sketchfab-15.47.0",
    "version": "2.0"
  },
  "bufferViews": [
    {
      "buffer": 0,
      "byteLength": 587952,
      "name": "floatBufferViews",
      "target": 34963
    },
    {
      "buffer": 0,
      "byteLength": 890240,
      "byteOffset": 587952,
      "byteStride": 8,
      "name": "floatBufferViews",
      "target": 34962
    },
    {
      "buffer": 0,
      "byteLength": 1335360,
      "byteOffset": 1478192,
      "byteStride": 12,
      "name": "floatBufferViews",
      "target": 34962
    }
  ],
  "buffers": [
    {
      "byteLength": 2813552,
      "uri": "scene.bin"
    }
  ],
  "extensionsUsed": [
    "KHR_materials_unlit"
  ],
  "images": [
    {
      "uri": "textures/Body_baseColor.png"
    },
    {
      "uri": "textures/Armor_baseColor.png"
    },
    {
      "uri": "textures/HairAndFace_baseColor.png"
    }
  ],
  "materials": [
    {
      "doubleSided": true,
      "extensions": {
        "KHR_materials_unlit": {}
      },
      "name": "Body",
      "pbrMetallicRoughness": {
        "baseColorTexture": {
          "index": 0
        },
        "metallicFactor": 0.0
      }
    },
    {
      "extensions": {
        "KHR_materials_unlit": {}
      },
      "name": "Outline",
      "pbrMetallicRoughness": {
        "baseColorFactor": [
          0.0,
          0.0,
          0.0,
          1.0
        ],
        "metallicFactor": 0.0
      }
    },
    {
      "doubleSided": true,
      "extensions": {
        "KHR_materials_unlit": {}
      },
      "name": "Armor",
      "pbrMetallicRoughness": {
        "baseColorTexture": {
          "index": 1
        },
        "metallicFactor": 0.0
      }
    },
    {
      "doubleSided": true,
      "extensions": {
        "KHR_materials_unlit": {}
      },
      "name": "HairAndFace",
      "pbrMetallicRoughness": {
        "baseColorTexture": {
          "index": 2
        },
        "metallicFactor": 0.0
      }
    }
  ],
  "meshes": [
    {
      "name": "Body_Body_0",
      "primitives": [
        {
          "attributes": {
            "NORMAL": 1,
            "POSITION": 0,
            "TEXCOORD_0": 2,
            "TEXCOORD_1": 3
          },
          "indices": 4,
          "material": 0,
          "mode": 4
        }
      ]
    },
    {
      "name": "Body_Outline_0",
      "primitives": [
        {
          "attributes": {
            "NORMAL": 6,
            "POSITION": 5,
            "TEXCOORD_0": 7,
            "TEXCOORD_1": 8
          },
          "indices": 9,
          "material": 1,
          "mode": 4
        }
      ]
    },
    {
      "name": "Armor_Armor_0",
      "primitives": [
        {
          "attributes": {
            "NORMAL": 11,
            "POSITION": 10,
            "TEXCOORD_0": 12,
            "TEXCOORD_1": 13
          },
          "indices": 14,
          "material": 2,
          "mode": 4
        }
      ]
    },
    {
      "name": "Armor_Outline_0",
      "primitives": [
        {
          "attributes": {
            "NORMAL": 16,
            "POSITION": 15,
            "TEXCOORD_0": 17,
            "TEXCOORD_1": 18
          },
          "indices": 19,
          "material": 1,
          "mode": 4
        }
      ]
    },
    {
      "name": "Beans_Armor_0",
      "primitives": [
        {
          "attributes": {
            "NORMAL": 21,
            "POSITION": 20,
            "TEXCOORD_0": 22,
            "TEXCOORD_1": 23
          },
          "indices": 24,
          "material": 2,
          "mode": 4
        }
      ]
    },
    {
      "name": "Beans_Outline_0",
      "primitives": [
        {
          "attributes": {
            "NORMAL": 26,
            "POSITION": 25,
            "TEXCOORD_0": 27,
            "TEXCOORD_1": 28
          },
          "indices": 29,
          "material": 1,
          "mode": 4
        }
      ]
    },
    {
      "name": "Head_HairAndFace_0",
      "primitives": [
        {
          "attributes": {
            "NORMAL": 31,
            "POSITION": 30,
            "TEXCOORD_0": 32,
            "TEXCOORD_1": 33
          },
          "indices": 34,
          "material": 3,
          "mode": 4
        }
      ]
    },
    {
      "name": "Head_Outline_0",
      "primitives": [
        {
          "attributes": {
            "NORMAL": 36,
            "POSITION": 35,
            "TEXCOORD_0": 37,
            "TEXCOORD_1": 38
          },
          "indices": 39,
          "material": 1,
          "mode": 4
        }
      ]
    },
    {
      "name": "Hairs_HairAndFace_0",
      "primitives": [
        {
          "attributes": {
            "NORMAL": 41,
            "POSITION": 40,
            "TEXCOORD_0": 42,
            "TEXCOORD_1": 43
          },
          "indices": 44,
          "material": 3,
          "mode": 4
        }
      ]
    },
    {
      "name": "Hairs_Outline_0",
      "primitives": [
        {
          "attributes": {
            "NORMAL": 46,
            "POSITION": 45,
            "TEXCOORD_0": 47,
            "TEXCOORD_1": 48
          },
          "indices": 49,
          "material": 1,
          "mode": 4
        }
      ]
    }
  ],
  "nodes": [
    {
      "children": [
        1
      ],
      "matrix": [
        1.1915838718414307,
        0.0,
        0.0,
        0.0,
        0.0,
        2.645847700580696e-16,
        -1.1915838718414307,
        0.0,
        0.0,
        1.1915838718414307,
        2.645847700580696e-16,
        0.0,
        0.0,
        0.0,
        0.0,
        1.0
      ],
      "name": "Sketchfab_model"
    },
    {
      "children": [
        2
      ],
      "matrix": [
        0.009999999776482582,
        0.0,
        0.0,
        0.0,
        0.0,
        0.0,
        0.009999999776482582,
        0.0,
        0.0,
        -0.009999999776482582,
        0.0,
        0.0,
        0.0,
        0.0,
        0.0,
        1.0
      ],
      "name": "fd14d275a88d459688cb6ae532a147a9.fbx"
    },
    {
      "children": [
        3,
        6,
        12
      ],
      "name": "RootNode"
    },
    {
      "children": [
        4,
        5
      ],
      "matrix": [
        100.0,
        0.0,
        0.0,
        0.0,
        0.0,
        -1.629206793918314e-05,
        -99.99999999999868,
        0.0,
        0.0,
        99.99999999999868,
        -1.629206793918314e-05,
        0.0,
        0.0,
        0.0,
        0.0,
        1.0
      ],
      "name": "Body"
    },
    {
      "mesh": 0,
      "name": "Body_Body_0"
    },
    {
      "mesh": 1,
      "name": "Body_Outline_0"
    },
    {
      "children": [
        7,
        8,
        9
      ],
      "matrix": [
        -3.969130182058194,
        -2.0605718347560464,
        0.06757771781536884,
        0.0,
        1.199549308328591,
        -2.1888878250362946,
        3.7113825525903232,
        0.0,
        -1.6767834321690869,
        3.311695112668552,
        2.4951115621763433,
        0.0,
        -30.34463882446289,
        -16.59698486328125,
        2.1915981769561768,
        1.0
      ],
      "name": "Armor"
    },
    {
      "mesh": 2,
      "name": "Armor_Armor_0"
    },
    {
      "mesh": 3,
      "name": "Armor_Outline_0"
    },
    {
      "children": [
        10,
        11
      ],
      "matrix": [
        -16.738441011104513,
        5.8732550413959,
        -9.41800849839076,
        0.0,
        -4.755625746212674,
        -19.499319213183178,
        -3.7080783962673762,
        0.0,
        -10.734153009165107,
        -0.9028903016523533,
        18.514538605679462,
        0.0,
        -14.780641555786133,
        -2.087068796157837,
        3.1219165325164795,
        1.0
      ],
      "name": "Beans"
    },
    {
      "mesh": 4,
      "name": "Beans_Armor_0"
    },
    {
      "mesh": 5,
      "name": "Beans_Outline_0"
    },
    {
      "children": [
        13,
        14,
        15
      ],
      "matrix": [
        3.2258907531660337,
        -1.020908989744497,
        -1.3711496222146276e-07,
        0.0,
        -1.0209067088670902,
        -3.225883545038607,
        -0.00715278565216955,
        0.0,
        0.0021580387657467565,
        0.006819472948125633,
        -3.3835743163643777,
        0.0,
        11.923491477966309,
        43.23551559448242,
        -2.2734475135803223,
        1.0
      ],
      "name": "Head"
    },
    {
      "mesh": 6,
      "name": "Head_HairAndFace_0"
    },
    {
      "mesh": 7,
      "name": "Head_Outline_0"
    },
    {
      "children": [
        16,
        17
      ],
      "matrix": [
        2.3188039036144446,
        -0.7338384283402808,
        0.0015512922952971618,
        0.0,
        -8.178307985224708e-08,
        0.005141163850784172,
        2.432148506417434,
        0.0,
        -0.7338401399465483,
        -2.3187989504302204,
        0.004901536766371627,
        0.0,
        -0.440338134765625,
        -3.563699722290039,
        -1.9563480615615845,
        1.0
      ],
      "name": "Hairs"
    },
    {
      "mesh": 8,
      "name": "Hairs_HairAndFace_0"
    },
    {
      "mesh": 9,
      "name": "Hairs_Outline_0"
    }
  ],
  "samplers": [
    {
      "magFilter": 9729,
      "minFilter": 9729,
      "wrapS": 10497,
      "wrapT": 10497
    }
  ],
  "scene": 0,
  "scenes": [
    {
      "name": "Sketchfab_Scene",
      "nodes": [
        0
      ]
    }
  ],
  "textures": [
    {
      "sampler": 0,
      "source": 0
    },
    {
      "sampler": 0,
      "source": 1
    },
    {
      "sampler": 0,
      "source": 2
    }
  ]
}
